<?xml version="1.0" standalone="no"?>
<!DOCTYPE svg PUBLIC "-//W3C//DTD SVG 20010904//EN"
 "http://www.w3.org/TR/2001/REC-SVG-20010904/DTD/svg10.dtd">
<svg version="1.0" xmlns="http://www.w3.org/2000/svg"
 width="512.000000pt" height="512.000000pt" viewBox="0 0 512.000000 512.000000"
 preserveAspectRatio="xMidYMid meet">
<metadata>
Created by potrace 1.14, written by Peter Selinger 2001-2017
</metadata>
<g transform="translate(0.000000,512.000000) scale(0.100000,-0.100000)"
fill="#000000" stroke="none">
<path d="M1220 4092 c-33 -27 -33 -87 -1 -113 21 -17 43 -19 221 -19 116 0
210 -4 227 -11 36 -13 79 -54 92 -88 6 -14 38 -377 71 -806 65 -840 67 -859
129 -949 91 -132 229 -194 406 -183 110 7 2038 233 2115 248 159 31 322 171
375 319 42 119 266 983 261 1006 -13 50 -18 50 -591 83 -297 18 -652 38 -790
46 -137 8 -524 31 -860 50 -599 35 -610 35 -635 17 -41 -31 -39 -104 3 -123
13 -6 622 -45 1355 -88 732 -42 1334 -80 1338 -84 10 -10 -204 -810 -234 -875
-31 -68 -103 -139 -175 -175 -54 -26 -105 -33 -1120 -153 -748 -88 -1078 -124
-1117 -119 -116 12 -207 82 -235 180 -8 29 -37 344 -70 760 -63 804 -68 859
-89 910 -28 66 -74 113 -144 147 l-66 33 -221 3 c-207 3 -223 2 -245 -16z"/>
<path d="M25 3685 c-14 -13 -25 -36 -25 -50 0 -14 11 -37 25 -50 l24 -25 709
0 709 0 21 23 c31 33 29 80 -4 106 -26 21 -34 21 -731 21 l-704 0 -24 -25z"/>
<path d="M425 3285 c-14 -13 -25 -36 -25 -50 0 -14 11 -37 25 -50 l24 -25 516
0 516 0 24 25 c14 13 25 36 25 50 0 14 -11 37 -25 50 l-24 25 -516 0 -516 0
-24 -25z"/>
<path d="M2625 3218 c-22 -20 -39 -74 -125 -396 -55 -206 -100 -380 -100 -388
0 -25 47 -64 78 -64 23 0 72 30 72 45 0 2 45 171 99 375 106 394 107 401 59
434 -31 22 -52 20 -83 -6z"/>
<path d="M3055 3187 c-23 -19 -38 -66 -116 -352 -48 -182 -88 -339 -88 -350 0
-65 99 -96 134 -41 19 28 185 652 185 692 0 23 -8 39 -26 53 -34 27 -57 26
-89 -2z"/>
<path d="M3494 3169 c-12 -6 -27 -21 -33 -33 -22 -44 -161 -585 -154 -603 13
-36 36 -53 73 -53 22 0 43 7 53 18 16 18 167 563 167 605 0 51 -60 88 -106 66z"/>
<path d="M3918 3135 c-31 -17 -29 -12 -108 -308 -51 -192 -59 -231 -49 -250
33 -60 105 -65 133 -8 7 14 41 132 76 262 70 263 71 281 15 305 -40 17 -34 17
-67 -1z"/>
<path d="M4327 3082 c-9 -10 -41 -111 -72 -224 -43 -162 -53 -212 -45 -232 11
-29 38 -46 73 -46 51 0 64 24 121 243 30 114 52 216 49 225 -18 52 -92 72
-126 34z"/>
<path d="M838 2895 c-37 -20 -47 -69 -20 -104 l19 -26 336 -3 c326 -2 337 -2
357 18 30 30 27 83 -6 109 -26 20 -38 21 -343 21 -256 -1 -321 -4 -343 -15z"/>
<path d="M1899 1776 c-13 -6 -46 -43 -72 -81 l-48 -70 -77 -5 c-189 -13 -348
-166 -360 -348 -10 -149 63 -245 208 -272 128 -24 290 54 371 180 l32 50 973
0 972 0 7 -32 c15 -69 70 -144 128 -174 156 -82 397 24 485 213 35 77 37 187
4 249 -28 54 -95 111 -146 125 -68 18 -183 7 -245 -25 -66 -34 -144 -106 -178
-163 l-25 -43 -970 2 -971 3 -12 47 c-6 26 -23 64 -37 85 l-25 38 43 65 c44
65 52 96 34 130 -14 27 -62 41 -91 26z m-120 -321 c119 -61 -6 -288 -167 -302
-127 -11 -160 110 -62 229 36 43 121 88 167 88 19 0 47 -7 62 -15z m2588 -20
c82 -94 -62 -285 -215 -285 -18 0 -43 10 -61 26 -102 86 56 305 209 290 32 -3
51 -11 67 -31z"/>
</g>
</svg>
